<?xml version="1.0" encoding="utf-8"?>
<!-- Generator: Adobe Illustrator 25.3.0, SVG Export Plug-In . SVG Version: 6.00 Build 0)  -->
<svg version="1.1" xmlns="http://www.w3.org/2000/svg" xmlns:xlink="http://www.w3.org/1999/xlink" x="0px" y="0px"
	 viewBox="0 0 612 612" style="enable-background:new 0 0 612 612;" xml:space="preserve">
<style type="text/css">
	.st0{display:none;}
	.st1{fill:#A01E22;stroke:#000000;stroke-width:3;stroke-miterlimit:10;}
	.st2{fill:#FFFFFF;stroke:#000000;stroke-width:2;stroke-miterlimit:10;}
	.st3{fill:#A01E22;stroke:#000000;stroke-width:4;stroke-miterlimit:10;}
	.st4{fill:#F1696D;stroke:#000000;stroke-width:2;stroke-miterlimit:10;}
	.st5{fill:#A01E22;stroke:#000000;stroke-width:2;stroke-miterlimit:10;}
	.st6{fill:none;stroke:#000000;stroke-width:3;stroke-linecap:round;stroke-miterlimit:10;}
</style>
<g id="Layer_1" class="st0">
	
		<image style="display:inline;overflow:visible;" width="768" height="768" xlink:href="D:\edwar\Pictures\Tablet drawings\twitch\png\edward.png"  transform="matrix(0.6978 0 0 0.6978 38.0319 49.0213)">
	</image>
</g>
<g id="penlines">
	<path class="st1" d="M250.8,188.4c0,0-12.3-4-26.9,0.8s-34.7,16.6-51.3,32.9S145.8,253.6,145,265c-0.8,11.5,12.3,40.3,12.5,45.4
		s4.9,16.1-1,24.8c-5.9,8.7-27.8,38.6-31.4,43.9c-3.6,5.4-15.8,33.7-13,45.7s7.3,34.6,21.3,41.1s30.6,15,57.5,8.5
		c26.9-6.5,50.7-9.9,73.2-21.4c22.5-11.6,43.6-10.9,57.5-3.1c14,7.8,37.1,17,63.7,21.8s59.6,10.6,85.4-6.8
		c25.9-17.4,32.7-32,34.7-52.8c2-20.8-5.1-38.5-20.6-49c-15.5-10.6-31.5-21.3-31.7-30.6c-0.2-9.4,6.6-25.4,15.3-30.3
		c8.7-4.9,10.1-18,7.4-23.9c-2.7-5.9-1.3-6.3-20.2-12.6c-18.9-6.4-29.1-11.1-34.7-23.6c-5.6-12.5-13.8-49-28.3-60.3
		c-14.6-11.2-26-19.1-54.9-20.2c-28.9-1-50.6,9.1-63.3,15.2C261.7,183,258.4,189.1,250.8,188.4z"/>
	<g id="Layer_3">
		<path class="st2" d="M235.2,283.5l29.6,4.4l30.6-17.4l16.7-22.9l23.5,14l35.7-10.3l2.7-27.7c0,0-12.3-20.1-26.9-21.8
			c-14.6-1.7-58.6,12.6-58.6,12.6l-40.9,19.1L230.4,253L235.2,283.5z"/>
	</g>
	<g id="eyes">
		<g>
			<circle class="st3" cx="267.4" cy="253.9" r="10.6"/>
			<circle class="st3" cx="337.1" cy="227.4" r="10.6"/>
		</g>
	</g>
	<path class="st4" d="M408.8,286.2c-2.6-19.1-6.1-27.6-13.8-39.1c-7.7-11.5-13-21.6-23.1-29.6s-19.1-16.9-22.1-18.5
		c-2.9-1.7-14.7-3.6-28.1-1.1s-19,3.6-29.1,2.8c-10.1-0.8-24.7-3.7-26.6-4.7c0,0,3.7,10.4-4.3,19.1s-21.4,22-28.9,27.9
		s-12.9,13.3-15.1,28.4c-2.2,15.1-4.3,37.8-7,43.1c-2.7,5.3-9.9,20.3-9.9,20.3s8,19.4,19.7,31.5c11.7,12.1,27.8,25.8,42.2,31.4
		s113.1,2.2,113.1,2.2l31.9-87.6C407.8,312.3,411.3,305.4,408.8,286.2z M299.2,256.3c-2.4,5.3-14.6,19.9-35.4,19.3
		c-20.8-0.6-26.8-14.5-25.5-19.3c0,0,1.4-18.7,28.9-24.9C294.7,225.3,302.1,249.6,299.2,256.3z M349.6,247.7
		c-19,8.5-30.2,0-31.1-4.8c0,0-6.1-21.3,12.1-32.6c21.2-13.2,38.8,3.9,39,11.1C369.6,227.2,368.5,239.2,349.6,247.7z"/>
	<path class="st5" d="M316.9,269.6c0,0-10.6,1.4-26.2,16.3s-24.9,37.8-27.9,51.4c-3.1,13.6-6.1,35.7-2,43.9
		c4.1,8.2,6.1,23.5,31.3,31.7c25.2,8.2,73.2,7.1,85.8,10.9c12.6,3.7,22.5,5.4,22.5,5.4s2.5-10.9,9.4-34.7c6.9-23.8,6.2-47,4.5-66
		s-4.4-22.1-11.2-31.7s-13.3-19.4-30.3-27.2c-17-7.8-42.6-4.4-47.3-3.1C320.6,267.9,316.9,269.6,316.9,269.6z"/>
	<path class="st4" d="M313.6,252.8c0,0-6.4,3.7-9.2,11.8c-2.8,8.1,3.3,12.2,9.2,10.7c5.9-1.5,19.7-4.9,27.1-16.9
		c7.4-12-14.7-11.2-18.5-10.2C318.4,249.2,313.6,252.8,313.6,252.8z"/>
	<path id="mouth" class="st6" d="M294.9,306c0,0,14.8-14.1,29.8-21.3c15-7.1,35.6-9.7,40.7-9.1"/>
	<path id="lefteyebrow" class="st6" d="M211,230.4c0,0,21.6-7.4,41.5-10.9s32,1.7,37.1,0"/>
	<path id="righteyebrow_1_" class="st6" d="M310.3,211.9c8.6-2,16.5-16.9,21.4-20.9c4.9-4.1,19.7-11.2,22.1-10.7"/>
</g>
</svg>
