<?xml version="1.0" encoding="utf-8"?>
<!-- Generator: Adobe Illustrator 25.3.1, SVG Export Plug-In . SVG Version: 6.00 Build 0)  -->
<svg version="1.1" id="jasmin_blu" xmlns="http://www.w3.org/2000/svg" xmlns:xlink="http://www.w3.org/1999/xlink" x="0px" y="0px"
	 viewBox="0 0 422.5 422.5" style="enable-background:new 0 0 422.5 422.5;" xml:space="preserve">
<style type="text/css">
	.st0{fill:#074969;stroke:#000000;stroke-width:2;stroke-miterlimit:10;}
	.st1{fill:#FFFFFF;stroke:#000000;stroke-width:0.5964;stroke-miterlimit:10;}
	.st2{fill:#074969;stroke:#000000;stroke-width:5;stroke-miterlimit:10;}
	.st3{fill:#6ACEF6;stroke:#000000;stroke-width:2;stroke-miterlimit:10;}
	.st4{fill:none;stroke:#000000;stroke-width:3;stroke-miterlimit:10;}
	.st5{stroke:#000000;stroke-width:2;stroke-miterlimit:10;}
	.st6{opacity:0.27;fill:#FFFFFF;}
	.st7{fill:none;stroke:#000000;stroke-width:4;stroke-miterlimit:10;}
	.st8{fill:none;stroke:#000000;stroke-width:6;stroke-miterlimit:10;}
	.st9{fill:none;stroke:#000000;stroke-width:2;stroke-miterlimit:10;}
</style>
<g id="backhair_2_">
	<path class="st0" d="M207.3,359.1c0,0,19.4-3.4,41.2,5.8c21.8,9.2,50,16,64.3,6.1c14.3-9.9,22.1-16,21.8-35.7s-8.9-24.5-4.1-37.8
		c4.8-13.3,21.4-27.2,21.3-56.9c-0.2-29.6-13.9-34-15.6-43.1s-6.1-15.7-6.1-21.2c0-5.5,0.5-75.4,0.5-75.4l-20.9-14.9l-8.3,7.5
		L198.1,239L207.3,359.1z"/>
</g>
<g id="white_3_">
	<path class="st1" d="M209.5,160.7c0,0-14.6-8.9-9.4-24.9s5.6-29.3,23.5-25.2s35.2,13.3,35.2,13.3l39-10.4l23.8,2.9l8.5,12.9
		c0,0,2.2,15.1,1.7,18.6c-0.5,3.4-9.5,15.2-9.5,15.2l-24.2,1.2l-16-14.2l-26.9,1.5l-23.8,18.6L209.5,160.7z"/>
</g>
<g id="pupils">
	<circle class="st2" cx="226.3" cy="140.9" r="4.7"/>
	<circle class="st2" cx="302" cy="141.7" r="4.7"/>
</g>
<g id="face_2_">
	<path class="st3" d="M329.3,123.1c-5.3-12.7-7.5-14.4-7.5-14.4s-9.7-15.4-17.7-20.8c-8-5.4-54.4-18.9-54.4-18.9l-81.4,20.9
		l-19.9,65.4l35.7,70.5l22.2,13c0,0,20.2,17.9,37.8,20.4c17.6,2.6,30.4-4.1,42.1-13.5c11.7-9.4,33.2-27.8,39.7-42.2
		C332.5,189,333,166,333,166S334.6,135.8,329.3,123.1z M228.3,162.2c-12.6,0-22.9-10.2-22.9-22.9s10.2-22.9,22.9-22.9
		s22.9,10.2,22.9,22.9S241,162.2,228.3,162.2z M308.1,163.1c-12.6,0-22.9-10.2-22.9-22.9s10.2-22.9,22.9-22.9s22.9,10.2,22.9,22.9
		S320.7,163.1,308.1,163.1z"/>
</g>
<path id="fronthair_2_" class="st0" d="M332.3,183.1c0,0,5.1-12.1,13.4-24.9c8.3-12.8,10.2-35.7,8.9-42.3
	c-1.3-6.6-0.3-17.6-24.9-29.5s-28.7-14.3-37.6-26c-8.9-11.6-22.1-30-30.8-33.1c-8.7-3.1-32.3,5.6-35.2,8c-2.9,2.5-3.7,0.8-4.7-0.6
	s-9.7-9.4-28.8-6s-42.8,14.7-54,26.7c-11.2,12-39.6,41.9-51.1,49.3s-21.2,21.4-15.8,37.8s18.1,33.8,14.4,46.2s-14.9,22-13.5,36
	s0.5,17,9.7,36.8s3.8,26.7-0.5,35.6c-4.3,8.9-17.1,26.3-16,43.6c1.2,17.4,7.5,37.1,30.5,34.4c23-2.7,37.4-8.4,61.4,0.3
	c24,8.7,53.4,4.1,59-9.7s13-20.9,8.1-43.8c-4.9-23-6.8-29.4-3.6-41.2c3.2-11.7,11.3-21.2-9.4-43.9s-31-20.6-30.3-39.8
	s12.9-30.1,12.9-41.7c0-11.6-1.7-18.9-12.3-30.4c-10.6-11.5-12.5-20.4-6.3-26.6c6.3-6.1,24.1-11.1,37.4-9.4s32.7,4.5,37.5-2
	c4.9-6.5,5.4-7.4,5.6-9.4c0.3-2,1,5.4,9.8,7.1s24,5.4,37.4,5.5c13.4,0.1,24.9,9.8,24.4,17.9c-0.4,8.1-0.2,10.7-0.2,10.7
	s2.9,9.4,4.3,20.4s0.5,35.2-0.3,40.2C331.4,184.3,332.3,183.1,332.3,183.1z"/>
<g id="eyelashbrow">
	<path class="st4" d="M191.7,113.5c0,0,11.1-11.7,27.4-15.1c16.3-3.4,29.9,1.4,29.9,1.4"/>
	<path class="st4" d="M337,117.3c0,0-2.8-11-16.2-15.7c-13.4-4.7-26.4-6.3-26.4-6.3"/>
	<path class="st5" d="M316.7,119c0,0,20.9,3.4,22.5,5.5c0,0-9.3,5.8-8.2,12.2s-0.9-6-3.6-8.8C324.6,125,320.4,120.6,316.7,119z"/>
	<path class="st5" d="M223.7,116.9c0,0-23.4-1.3-24.5-0.8c0,0,6.8,9.3,7,12.1c0.3,2.9,0.1,4.9,0.1,4.9s3.3-9.8,9-12.6
		C220.9,117.7,223.7,116.9,223.7,116.9z"/>
</g>
<g id="glasses_2_">
	<g id="Layer_43">
		<path class="st6" d="M285.9,174.4c0,0-1.2-56.3-2.2-58.4s32.7-13.3,64.3-11.8s25.8,5.6,25.8,5.6l-4.1,64.6c0,0-16.3,5.1-43.7,3.7
			C298.7,176.7,285.9,174.4,285.9,174.4z"/>
		<path class="st6" d="M155.6,174.3c0,0,0.3-62,2.4-65.7c2-3.7,93.6-2.4,97,4.9c3.4,7.3-1.7,59.1-1.7,59.1s-37.4,5.8-55.1,5.4
			S155.6,174.3,155.6,174.3z"/>
	</g>
	<path class="st7" d="M155.6,174.3c0,0,0.3-62,2.4-65.7c2-3.7,93.6-2.4,97,4.9c3.4,7.3-1.7,59.1-1.7,59.1s-37.4,5.8-55.1,5.4
		S155.6,174.3,155.6,174.3z"/>
	<path class="st7" d="M285.9,174.4c0,0-1.2-56.3-2.2-58.4s32.7-13.3,64.3-11.8s25.8,5.6,25.8,5.6l-4.1,64.6c0,0-16.3,5.1-43.7,3.7
		C298.7,176.7,285.9,174.4,285.9,174.4z"/>
	<line class="st8" x1="255.8" y1="138.5" x2="285.2" y2="138.5"/>
</g>
<g id="nose_3_">
	<ellipse class="st3" cx="271.3" cy="163.1" rx="14.4" ry="13"/>
	<path class="st9" d="M248.9,183.7c0,0,33.7-0.1,35.1,0.9c1.4,1,2.3,6.1,1.6,6.6"/>
</g>
</svg>
