<?xml version="1.0" encoding="utf-8"?>
<!-- Generator: Adobe Illustrator 25.3.1, SVG Export Plug-In . SVG Version: 6.00 Build 0)  -->
<svg version="1.1" id="nic_teal" xmlns="http://www.w3.org/2000/svg" xmlns:xlink="http://www.w3.org/1999/xlink" x="0px" y="0px"
	 viewBox="0 0 422.5 422.5" style="enable-background:new 0 0 422.5 422.5;" xml:space="preserve">
<style type="text/css">
	.st0{fill:#106C65;stroke:#000000;stroke-width:3;stroke-miterlimit:10;}
	.st1{fill:#FFFFFF;}
	.st2{fill:#81CFD0;stroke:#000000;stroke-width:3;stroke-miterlimit:10;}
	.st3{fill:none;stroke:#000000;stroke-width:3;stroke-linecap:round;stroke-miterlimit:10;}
	.st4{fill:none;stroke:#000000;stroke-width:4;stroke-miterlimit:10;}
	.st5{stroke:#000000;stroke-width:4;stroke-miterlimit:10;}
	.st6{fill:#81CFD0;stroke:#000000;stroke-width:4;stroke-miterlimit:10;}
</style>
<path id="hair" class="st0" d="M73.3,250.4c0,0-7.3-4.8-13.4-20.4s-5.6-38-3.6-48.8c2-10.7,12.1-39,37.3-68.9s84.3-56.2,112.4-57.2
	c28.2-1,70.4-3.1,88.1,8.9s19.1,18.8,22.5,31.7c0.9,3.4,0.8,4.4,0.8,4.4s23.7,13,42.1,40.1c18.4,27.1,30,61.7,25.7,83.8
	c-4.3,22.1-17.7,46.3-33.5,50.6c-15.8,4.3-25.3,0.6-25.9-0.9c-0.6-1.5-50.4-81.7-50.4-81.7l-112,24.2l-76.9-17.7L73.3,250.4z"/>
<g id="white">
	<path class="st1" d="M86.8,256c0,0-12.3-18.6-13.3-25c-1-6.4,4.8-26.1,10.9-29.2c6.1-3.1,17.2-8.1,54.2,6.7c10.3,4.1,47-3.7,54-5.1
		c12.8-2.5,52.5-12.2,58.9-6.1s17.4,49.7,4.4,55.1c-12.9,5.4-47,14.6-60.9,3.4s-32.3-29.8-36.8-27.9c-4.4,2-35.7,25.5-44.6,27.2
		C104.9,257,86.8,256,86.8,256z"/>
</g>
<g id="eyes_1_">
	<circle class="st0" cx="109.2" cy="225.6" r="11.7"/>
	<circle class="st0" cx="212.3" cy="225.2" r="11.7"/>
</g>
<path id="face" class="st2" d="M327.6,228.6c-4.3-5.9-14.2-17.5-16.6-23.5s-10.3-22-10.9-28.7c-0.5-6.8-1.1-18.5-1.1-18.5
	S262,185.5,217.5,198c-21.3,6-55.7,12.4-88.6,5.1c-8.6-1.9-14.2-3.4-28.2-12.4c-10-6.5-13.9-16.5-13.9-16.5s-9.5,20.3-11.9,35.9
	c-2.4,15.7-3.6,41.7,7.8,66c11.4,24.4,20,41.7,36.5,56.1s27.4,27.5,68.6,27.7c37,0.2,78.6-25.7,89.2-33.2
	c10.6-7.5,29.7-21,41.7-35.4c11.7-14.1,19-29.5,21.3-39.8c0.5-2.3,0.6-6.7,0.6-6.7S332,234.5,327.6,228.6z M126.8,239.6
	c-8.1,8.2-20.3,14.9-34.5,7.9c-3-1.5-5.2-3.1-7-4.6c-3.8-3.4-5.8-8.3-5.7-13.4c0.1-5.4,0.5-12.2,5.3-17.2
	c5.4-5.6,22.9-15.7,37.7-8.6C137.4,210.9,138,228.4,126.8,239.6z M245.2,236c-5.9,13.5-27.6,14-36.9,10.5c-6.5-2.5-15-7.8-20-14.9
	c-3-4.3-4.7-10.9-2.1-15.5c2.6-4.6,7.6-10.8,15.9-12.8c13.7-3.2,29.5,0.3,34.3,3.7C245.8,213.8,251.1,222.5,245.2,236z"/>
<path id="mouth_1_" class="st3" d="M124.9,267.9c0,0,1.5,16.7,15.3,17s22.9-5.1,25.5-4.9c2.9,0.2,13.6,10,25.2,8.9
	c9.1-0.9,23.5-5.1,24-13.6"/>
<g id="glasses">
	<path class="st4" d="M48.3,206.3c0,0-1-9.5,13.6-13.6c14.6-4.1,35.7-4.1,66.4-1.7s26.6,8.2,26.2,11.2s-2.3,10.8-6.8,23.5
		c-4.6,12.8-9.4,18.1-18.9,26.4c-8.4,7.4-20.2,12.4-39.6,12c-19.4-0.3-24.5,1.4-29.6-6.5c-5.1-7.8-7.5-29.6-8.5-34.4
		C50,218.6,48.3,206.3,48.3,206.3z"/>
	<path class="st4" d="M180.3,224.9c0,0-5.1-22.2-2.8-28.3c2.3-6.1,26.3-7.1,38.8-8.4c12.5-1.3,48.5-6,64.9,1.2
		c16.3,7.2,12.8,18.2,11.2,29.4c-1.5,11.2-7.1,39.8-8.9,41.1c-1.8,1.3-15.3,9.4-38.8,8s-37.3-9.5-45.2-16.9
		C191.5,243.6,180.3,224.9,180.3,224.9z"/>
	<path class="st5" d="M148.7,225.6c0,0,6.5-4,12.5-4.2c6-0.2,18.2,3.4,18.7,4.1c0.5,0.7-0.7-6.8-2-7.5s-13-3.7-18.3-2.5
		c-5.3,1.2-9.5,3.2-9.5,3.2L148.7,225.6z"/>
</g>
<g id="nose">
	<ellipse class="st6" cx="160.8" cy="248.4" rx="24.8" ry="17.4"/>
</g>
</svg>
