<?xml version="1.0" encoding="utf-8"?>
<!-- Generator: Adobe Illustrator 25.3.1, SVG Export Plug-In . SVG Version: 6.00 Build 0)  -->
<svg version="1.1" id="sam_orange" xmlns="http://www.w3.org/2000/svg" xmlns:xlink="http://www.w3.org/1999/xlink" x="0px" y="0px"
	 viewBox="0 0 422.5 422.5" style="enable-background:new 0 0 422.5 422.5;" xml:space="preserve">
<style type="text/css">
	.st0{fill:#EE3C23;stroke:#000000;stroke-width:2;stroke-miterlimit:10;}
	.st1{fill:#FFFFFF;stroke:#000000;stroke-miterlimit:10;}
	.st2{fill:#F68E6D;stroke:#000000;stroke-width:2;stroke-miterlimit:10;}
	.st3{stroke:#000000;stroke-width:2;stroke-miterlimit:10;}
	.st4{stroke:#000000;stroke-width:3;stroke-linecap:round;stroke-miterlimit:10;}
</style>
<g id="backhair">
	<path class="st0" d="M96.3,221.1c0,0-3.3,14.6-8.9,17.6c-5.6,3.1-13.8,12.8-12.8,18.9c1,6.1,12.8,26,12.8,31.9s-15.5,31-18.2,43.6
		s-3,30.2,15.3,40.2c18.3,10,52.5-0.9,65.7-1.5s88.3-11,115.9,5.7c27.6,16.7,52.6,33.1,77.1,17.3c24.5-15.8,27.7-27.8,25.3-47.7
		c-2.4-19.9-5.4-24-16.1-43.3s-12-40.2-12-40.2l-139.1-8.2L96.3,221.1z"/>
</g>
<g id="white_1_">
	<path class="st1" d="M91.4,153.4c0,0,2-25.8,3.6-31.7c1.5-5.9,16.6-23.5,27.8-24.5s37.4,5.4,40.5,20.2s35.6,2.6,36.8,3.6
		s54.6,40.6,54.6,40.6l-17.1,31.9l-38.3,17.1L91.4,153.4z"/>
</g>
<g id="eyes_2_">
	<circle class="st0" cx="122.4" cy="139" r="14.2"/>
	<circle class="st0" cx="204.2" cy="173.2" r="14.2"/>
</g>
<g id="face_1_">
	<path class="st2" d="M196.1,85.1c-3.1-11.6-54-9.9-64.2-9.7c-10.2,0.2-27.7,27.1-27.7,27.1s-15.1,15.2-22.5,50
		c-7.4,34.7-2.3,32.4,2,51.8c4.3,19.4,22.5,49.8,30.6,65S128,294.1,144,303s47.3-2.7,75.6-11.9s47.5-21.8,47.5-21.8l21.3-13.3v-74.6
		C288.3,181.4,199.1,96.7,196.1,85.1z M126.3,159.5c-15.9,1.3-29.7-9.1-30.9-23.4c-1.2-14.3,10.7-26.9,26.6-28.3
		c15.9-1.3,29.7,9.1,30.9,23.4C154.1,145.5,142.2,158.1,126.3,159.5z M233.4,179.1c-2.8,16.3-25.4,21.4-41.9,14.4
		c-16.5-7-20.1-20.6-17.5-36.9c2.6-16.3,14.1-23,14.1-23l2.4-1.7l41.7,23.7C232.2,155.6,236.2,162.8,233.4,179.1z"/>
	
		<ellipse id="nose_1_" transform="matrix(0.1375 -0.9905 0.9905 0.1375 -50.8635 294.4842)" class="st2" cx="143.7" cy="176.4" rx="18.8" ry="20"/>
	<g id="Layer_21">
		<path class="st3" d="M233.5,178.1l10.9-13.8l-10.1-8.7C234.4,155.5,235,175.8,233.5,178.1z"/>
	</g>
</g>
<g id="mouth_2_">
	<path class="st4" d="M109.7,201.5c0,0,19.4,10.1,30.3,12.3c12.6,2.5,42.8-0.4,44.8-0.7c1.5-0.2-16,21.6-38.8,22.1
		C123.1,235.7,108.6,206.3,109.7,201.5z"/>
</g>
<g id="tophair">
	<path class="st0" d="M180.4,83.1c0,0-8.3-0.8-14.3-2.2c-6-1.4-15.4-4.2-28-1.8c-12.5,2.4-26,15.1-28.1,17.9
		c-2,2.8-10.2,10.6-10.2,10.6s2.6-19.5,4.5-26.6c2-7.1,12.1-26,25.6-32.8s14.4-10.3,38-12.6c23.6-2.3,42.8,9.5,48,12.3
		c5.2,2.8,10.7,9.9,10.9,10.2C227,58.5,180.4,83.1,180.4,83.1z"/>
</g>
<g id="eyelash">
	<path class="st3" d="M96.7,101.3c0,0,17.2,3.3,23,3.7c10.6,0.7,24.1,6.2,27.1,9.4c7.6,8.1,6.2,18.1,6.2,18.1s-0.7-14.3-10-19.4
		c-9.4-5.1-13.8-9-30.6-3c-11.4,4.1-14.2,11.5-14.2,11.5S98.5,104.3,96.7,101.3z"/>
</g>
<path id="fronthair" class="st0" d="M226,57.7c0,0-3.6-0.3-17.9,3.1s-24.2,14-28.9,21.6s-5.3,22.8-2.7,32.5s16.8,25.5,35.9,35
	s55.7,29,63.3,52.3c7.7,23.5,4.3,43.2-5.3,54.5s-20.9,34.4-21.5,43.4s-4,27.1,10.6,37.7c14.6,10.6,30.9,10.5,50.1-0.8
	c19.3-11.2,42.5-21.3,36.3-46.3c-6.1-25-6.3-24.7,2.6-53.4c8.9-28.8,17-29.3,9.4-55s-34-22.1-37.1-39.3
	c-3.1-17.2,2.2-54.5-11.4-70.8s-24.2-24-55-28.9s-43.7,1.8-43.7,1.8S222.4,52.9,226,57.7z"/>
</svg>
