<?xml version="1.0" encoding="utf-8"?>
<!-- Generator: Adobe Illustrator 25.3.1, SVG Export Plug-In . SVG Version: 6.00 Build 0)  -->
<svg version="1.1" xmlns="http://www.w3.org/2000/svg" xmlns:xlink="http://www.w3.org/1999/xlink" x="0px" y="0px"
	 viewBox="0 0 612 612" style="enable-background:new 0 0 612 612;" xml:space="preserve">
<style type="text/css">
	.st0{display:none;}
	.st1{display:inline;}
	.st2{display:inline;fill:#106C65;stroke:#000000;stroke-width:3;stroke-miterlimit:10;}
	.st3{fill:#FFFFFF;}
	.st4{fill:#106C65;stroke:#000000;stroke-width:3;stroke-miterlimit:10;}
	.st5{display:inline;fill:#81CFD0;stroke:#000000;stroke-width:3;stroke-miterlimit:10;}
	.st6{display:inline;fill:none;stroke:#000000;stroke-width:3;stroke-linecap:round;stroke-miterlimit:10;}
	.st7{fill:none;stroke:#000000;stroke-width:4;stroke-miterlimit:10;}
	.st8{stroke:#000000;stroke-width:4;stroke-miterlimit:10;}
	.st9{fill:#81CFD0;stroke:#000000;stroke-width:4;stroke-miterlimit:10;}
	.st10{fill:#FFFFFF;stroke:#000000;stroke-width:2;stroke-miterlimit:10;}
	.st11{fill:#D61B69;stroke:#000000;stroke-width:4;stroke-miterlimit:10;}
	.st12{fill:#F5A1C5;stroke:#000000;stroke-width:2;stroke-miterlimit:10;}
	.st13{fill:none;stroke:#000000;stroke-width:2;stroke-linecap:round;stroke-miterlimit:10;}
	.st14{fill:#D61B69;stroke:#000000;stroke-width:2;stroke-miterlimit:10;}
	.st15{fill:none;stroke:#000000;stroke-width:3;stroke-linecap:round;stroke-miterlimit:10;}
	.st16{opacity:0.48;fill:#FFFFFF;}
	.st17{fill:none;stroke:#000000;stroke-width:4;stroke-linecap:round;stroke-miterlimit:10;}
	.st18{fill:none;stroke:#000000;stroke-width:6;stroke-linecap:round;stroke-miterlimit:10;}
	.st19{fill:#EE3C23;stroke:#000000;stroke-width:2;stroke-miterlimit:10;}
	.st20{fill:#FFFFFF;stroke:#000000;stroke-miterlimit:10;}
	.st21{fill:#F68E6D;stroke:#000000;stroke-width:2;stroke-miterlimit:10;}
	.st22{stroke:#000000;stroke-width:2;stroke-miterlimit:10;}
	.st23{stroke:#000000;stroke-width:3;stroke-linecap:round;stroke-miterlimit:10;}
	.st24{display:inline;fill:#EE3C23;stroke:#000000;stroke-width:2;stroke-miterlimit:10;}
	.st25{display:inline;fill:#A01E22;stroke:#000000;stroke-width:3;stroke-miterlimit:10;}
	.st26{fill:#A01E22;stroke:#000000;stroke-width:4;stroke-miterlimit:10;}
	.st27{display:inline;fill:#F1696D;stroke:#000000;stroke-width:2;stroke-miterlimit:10;}
	.st28{display:inline;fill:#A01E22;stroke:#000000;stroke-width:2;stroke-miterlimit:10;}
</style>
<g id="guides" class="st0">
	<g id="Layer_1">
		
			<image style="display:inline;overflow:visible;" width="768" height="768" xlink:href="D:\edwar\Pictures\Tablet drawings\twitch\png\edward.png"  transform="matrix(0.6978 0 0 0.6978 38.0319 49.0213)">
		</image>
	</g>
	<g id="Layer_5">
		
			<image style="display:inline;overflow:visible;opacity:0.64;" width="768" height="768" xlink:href="D:\edwar\Pictures\Tablet drawings\twitch\png\nic.png"  transform="matrix(0.881 0 0 0.881 -29.0851 -13.0213)">
		</image>
	</g>
	<g id="Layer_12">
		
			<image style="display:inline;overflow:visible;opacity:0.67;" width="768" height="768" xlink:href="D:\edwar\Pictures\Tablet drawings\twitch\png\sam.png"  transform="matrix(0.8324 0 0 0.8324 -21.1702 -13.6489)">
		</image>
	</g>
	<g id="Layer_22" class="st1">
		
			<image style="overflow:visible;" width="768" height="768" xlink:href="D:\edwar\Pictures\Tablet drawings\twitch\png\thomas.png"  transform="matrix(0.813 0 0 0.813 -13.7234 7.0213)">
		</image>
	</g>
</g>
<g id="nic_teal" class="st0">
	<path id="hair" class="st2" d="M168.5,344.7c0,0-7.3-4.8-13.4-20.4c-6.1-15.6-5.6-38-3.6-48.8c2-10.7,12.1-39,37.3-68.9
		s84.3-56.2,112.4-57.2s70.4-3.1,88.1,8.9c17.7,11.9,19.1,18.8,22.5,31.7c0.9,3.4,0.8,4.4,0.8,4.4s23.7,13,42.1,40.1
		c18.4,27.1,30,61.7,25.7,83.8s-17.7,46.3-33.5,50.6c-15.8,4.3-25.3,0.6-25.9-0.9c-0.6-1.5-50.4-81.7-50.4-81.7l-112,24.2
		l-76.9-17.7L168.5,344.7z"/>
	<g id="white" class="st1">
		<path class="st3" d="M182.1,350.2c0,0-12.3-18.6-13.3-25c-1-6.4,4.8-26.1,10.9-29.2c6.1-3.1,17.2-8.1,54.2,6.7
			c10.3,4.1,47-3.7,54-5.1c12.8-2.5,52.5-12.2,58.9-6.1c6.5,6.1,17.4,49.7,4.4,55.1c-12.9,5.4-47,14.6-60.9,3.4
			c-14-11.2-32.3-29.8-36.8-27.9c-4.4,2-35.7,25.5-44.6,27.2C200.1,351.3,182.1,350.2,182.1,350.2z"/>
	</g>
	<g id="eyes_1_" class="st1">
		<circle class="st4" cx="204.4" cy="319.9" r="11.7"/>
		<circle class="st4" cx="307.6" cy="319.5" r="11.7"/>
	</g>
	<path id="face" class="st5" d="M422.9,322.8c-4.3-5.9-14.2-17.5-16.6-23.5s-10.3-22-10.9-28.7c-0.5-6.8-1.1-18.5-1.1-18.5
		s-37.2,27.6-81.6,40.1c-21.3,6-55.7,12.4-88.6,5.1c-8.6-1.9-14.2-3.4-28.2-12.4c-10-6.5-13.9-16.5-13.9-16.5s-9.5,20.3-11.9,35.9
		c-2.4,15.7-3.6,41.7,7.8,66c11.4,24.4,20,41.7,36.5,56.1s27.4,27.5,68.6,27.7c37,0.2,78.6-25.7,89.2-33.2
		c10.6-7.5,29.7-21,41.7-35.4c11.7-14.1,19-29.5,21.3-39.8c0.5-2.3,0.6-6.7,0.6-6.7S427.2,328.7,422.9,322.8z M222.1,333.9
		c-8.1,8.2-20.3,14.9-34.5,7.9c-3-1.5-5.2-3.1-7-4.6c-3.8-3.4-5.8-8.3-5.7-13.4c0.1-5.4,0.5-12.2,5.3-17.2
		c5.4-5.6,22.9-15.7,37.7-8.6C232.6,305.1,233.3,322.6,222.1,333.9z M340.5,330.3c-5.9,13.5-27.6,14-36.9,10.5
		c-6.5-2.5-15-7.8-20-14.9c-3-4.3-4.7-10.9-2.1-15.5c2.6-4.6,7.6-10.8,15.9-12.8c13.7-3.2,29.5,0.3,34.3,3.7
		C341.1,308.1,346.4,316.7,340.5,330.3z"/>
	<path id="mouth_1_" class="st6" d="M220.2,362.1c0,0,1.5,16.7,15.3,17c13.8,0.3,22.9-5.1,25.5-4.9c2.9,0.2,13.6,10,25.2,8.9
		c9.1-0.9,23.5-5.1,24-13.6"/>
	<g id="glasses" class="st1">
		<path class="st7" d="M143.6,300.5c0,0-1-9.5,13.6-13.6c14.6-4.1,35.7-4.1,66.4-1.7c30.6,2.4,26.6,8.2,26.2,11.2
			c-0.3,3.1-2.3,10.8-6.8,23.5c-4.6,12.8-9.4,18.1-18.9,26.4c-8.4,7.4-20.2,12.4-39.6,12s-24.5,1.4-29.6-6.5
			c-5.1-7.8-7.5-29.6-8.5-34.4C145.3,312.8,143.6,300.5,143.6,300.5z"/>
		<path class="st7" d="M275.5,319.2c0,0-5.1-22.2-2.8-28.3c2.3-6.1,26.3-7.1,38.8-8.4c12.5-1.3,48.5-6,64.9,1.2s12.8,18.2,11.2,29.4
			c-1.5,11.2-7.1,39.8-8.9,41.1c-1.8,1.3-15.3,9.4-38.8,8c-23.5-1.4-37.3-9.5-45.2-16.9S275.5,319.2,275.5,319.2z"/>
		<path class="st8" d="M243.9,319.9c0,0,6.5-4,12.5-4.2c6-0.2,18.2,3.4,18.7,4.1c0.5,0.7-0.7-6.8-2-7.5c-1.3-0.7-13-3.7-18.3-2.5
			c-5.3,1.2-9.5,3.2-9.5,3.2L243.9,319.9z"/>
	</g>
	<g id="nose" class="st1">
		<ellipse class="st9" cx="256" cy="342.6" rx="24.8" ry="17.4"/>
	</g>
</g>
<g id="thomas_pink">
	<g id="white_2_">
		<polygon class="st10" points="247.2,331.8 234.1,289.4 257.3,267.1 343.9,281.4 324.9,338.2 		"/>
	</g>
	<g id="eye">
		<circle class="st11" cx="293.1" cy="304.4" r="15"/>
	</g>
	<g id="face_3_">
		<path class="st12" d="M419.9,295.6c-0.7-17.1-3.2-31.1-7.7-41.4s-12.1-19.6-12.1-19.6l-135.3-46.1l-74.2,34l-11.9,37.8
			c0,0-8.7,24.5-8.7,37.1s-1,33.4,11.7,49.7c12.8,16.3,53.7,64.4,64.2,72.6s24,21.4,56.7,24.3c32.7,2.8,38.6-9,38.6-9
			s38.5-36.4,48.2-54.8c9.7-18.4,16.8-27.1,23.9-49.9C416.7,319.2,420.3,306,419.9,295.6z M291,331.4c-19-2.2-26.8-9.5-31.8-18.5
			c-0.8-1.4-1.3-3.8-1.6-6c-0.9-5.5,1-11.1,5.1-14.8c6.3-5.8,17.2-9.6,29.3-9.5c18.4,0.3,33.3,13.8,32.9,28.3
			C324.5,325.6,310,333.6,291,331.4z"/>
		<path class="st13" d="M356.3,338.2c0,0,14.2-30.1,22.2-35.1c8-5,16.5-7.8,20.8,2.9s3.8,24.5,3.8,24.5"/>
	</g>
	<g id="backhair_1_">
		<path class="st14" d="M264.6,202c0,0,1,8-4.3,14.8c-5.3,6.8-13.3,12.3-22.8,14.5c-9.5,2.2-23,6-24.5,5.1
			c-1.5-0.9-11.7,12.4-11.1,23c0.7,10.6,2,22.1,9.5,24.2L183,314.1c0,0-9-3-6.6-36.2c0.4-5.7,0.2-11.6,0.2-11.6s-5.3,15-5.4,16.5
			c-0.1,1.4-0.3-11.8,0.9-32.5c1.1-20.7,2.6-32.8,7-47.2c3.5-11.4,7.8-22.7,20.6-34.4c12.8-11.7,30.3-20.2,41.6-21.8
			c11.4-1.7,24.9,1,24.9,1L264.6,202z"/>
	</g>
	<g id="fronthair_1_">
		<path class="st14" d="M325.7,114c0,0-14.5-1.9-44.3,6.1s-38.1,33.9-38.3,44.3c-0.2,10.4,1.7,33,26.4,49s28.4,16.6,51.1,18
			c22.7,1.3,31.7-0.3,51.3,2.6c19.7,2.8,32.3,9,39.4,21.7c7.1,12.7,8.5,41.8,8.5,41.8s5.6-3.1,7.6-9.3c2-6.2,6.7-18.3,6.3-30.6
			s-9.9-18.3-11.7-19.5c-13.3-8.3-16.9-8.5-16.9-8.5s21.2,6.2,30.6,23.7c8.1,15.2,9.1,18.4,9.1,18.4s3.9-7-4.1-29.1
			s-19.2-34.9-25.4-39.5s-12-8-12-8s10.3-0.4,19.3,5c8.9,5.4,19.4,13.3,23.1,22s4.6,16,4.6,16s7.7-22.9,4.9-35.7
			c-2.9-12.8-2.6-32-23.1-51.4s-31.5-20-56.6-24.5c-25.1-4.5-51.3,6.5-59.2,7.1c-7.9,0.6-16.6-2.8-11-8.9
			C310.9,118.4,325.7,114,325.7,114z"/>
	</g>
	<g id="mouth_3_">
		<path class="st15" d="M340.6,391.4c0,0-30.1,1-43.7-6.4c-13.5-7.4-26.6-18.6-30.8-28.6"/>
	</g>
	<g id="glasses_1_">
		<g id="Layer_33">
			<path class="st16" d="M209.6,316.5c0,0,4.4-34.7,19.7-40.1s105.2,33.4,107.9,33.7c2.7,0.3-3.1,33.4-7.5,39.8s-36.1,10.2-65.7,3.1
				C234.5,345.8,213,323.3,209.6,316.5z"/>
			<path class="st16" d="M347.9,356.8c0,0,8.2-44.4,7.5-46.8c-0.7-2.4,67.7-1.7,83.1-8.5s4.4,52.1,4.4,52.1s-27.2,13.5-49.7,13.8
				S352.6,370.2,347.9,356.8z"/>
		</g>
		<path class="st17" d="M209.6,316.5c0,0,4.4-34.7,19.7-40.1s105.2,33.4,107.9,33.7c2.7,0.3-3.1,33.4-7.5,39.8s-36.1,10.2-65.7,3.1
			C234.5,345.8,213,323.3,209.6,316.5z"/>
		<path class="st17" d="M347.9,356.8c0,0,8.2-44.4,7.5-46.8c-0.7-2.4,67.7-1.7,83.1-8.5s4.4,52.1,4.4,52.1s-27.2,13.5-49.7,13.8
			S352.6,370.2,347.9,356.8z"/>
		<path class="st17" d="M337.2,322c0,0,15.8-2,16.3,2.9"/>
	</g>
	<g id="nose_2_">
		<path class="st12" d="M336.9,324c0,0,18.8-1.3,19.6,15.8s-5.6,27.7-13.4,29.6s-26.7,0.8-31.8-9.8c-1.5-3.2-0.8-3.5-0.8-3.5
			s17.6-1.4,19.8-7.2C332.6,343.2,336.9,324,336.9,324z"/>
	</g>
	<g id="eyebrows">
		<path class="st18" d="M261,254.6c4.1-3.7,19-9.9,37.4,2.7c18.4,12.6,31.1,31.3,38.7,38.1"/>
		<path class="st18" d="M353.4,297.4c0,0,20.3-12.5,32.9-14.7s41.9-1.5,46,1.9"/>
	</g>
</g>
<g id="sam_orange" class="st0">
	<g id="backhair" class="st1">
		<path class="st19" d="M191.5,315.3c0,0-3.3,14.6-8.9,17.6c-5.6,3.1-13.8,12.8-12.8,18.9c1,6.1,12.8,26,12.8,31.9
			s-15.5,31-18.2,43.6c-2.7,12.6-3,30.2,15.3,40.2c18.3,10,52.5-0.9,65.7-1.5s88.3-11,115.9,5.7s52.6,33.1,77.1,17.3
			c24.5-15.8,27.7-27.8,25.3-47.7c-2.4-19.9-5.4-24-16.1-43.3c-10.6-19.3-12-40.2-12-40.2l-139.1-8.2L191.5,315.3z"/>
	</g>
	<g id="white_1_" class="st1">
		<path class="st20" d="M186.7,247.7c0,0,2-25.8,3.6-31.7c1.5-5.9,16.6-23.5,27.8-24.5c11.2-1,37.4,5.4,40.5,20.2
			c3.1,14.8,35.6,2.6,36.8,3.6c1.3,1,54.6,40.6,54.6,40.6L333,287.7l-38.3,17.1L186.7,247.7z"/>
	</g>
	<g id="eyes_2_" class="st1">
		<circle class="st19" cx="217.7" cy="233.3" r="14.2"/>
		<circle class="st19" cx="299.5" cy="267.5" r="14.2"/>
	</g>
	<g id="face_1_" class="st1">
		<path class="st21" d="M291.3,179.3c-3.1-11.6-54-9.9-64.2-9.7c-10.2,0.2-27.7,27.1-27.7,27.1s-15.1,15.2-22.5,50
			c-7.4,34.7-2.3,32.4,2,51.8c4.3,19.4,22.5,49.8,30.6,65s13.6,24.9,29.6,33.7s47.3-2.7,75.6-11.9s47.5-21.8,47.5-21.8l21.3-13.3
			v-74.6C383.6,275.7,294.4,190.9,291.3,179.3z M221.5,253.7c-15.9,1.3-29.7-9.1-30.9-23.4c-1.2-14.3,10.7-26.9,26.6-28.3
			c15.9-1.3,29.7,9.1,30.9,23.4C249.3,239.7,237.4,252.4,221.5,253.7z M328.6,273.3c-2.8,16.3-25.4,21.4-41.9,14.4
			c-16.5-7-20.1-20.6-17.5-36.9c2.6-16.3,14.1-23,14.1-23l2.4-1.7l41.7,23.7C327.4,249.8,331.4,257,328.6,273.3z"/>
		
			<ellipse id="nose_1_" transform="matrix(0.1375 -0.9905 0.9905 0.1375 -62.0421 470.115)" class="st21" cx="238.9" cy="270.7" rx="18.8" ry="20"/>
		<g id="Layer_21">
			<path class="st22" d="M328.8,272.3l10.9-13.8l-10.1-8.7C329.6,249.7,330.2,270.1,328.8,272.3z"/>
		</g>
	</g>
	<g id="mouth_2_" class="st1">
		<path class="st23" d="M204.9,295.8c0,0,19.4,10.1,30.3,12.3c12.6,2.5,42.8-0.4,44.8-0.7c1.5-0.2-16,21.6-38.8,22.1
			C218.4,330,203.9,300.5,204.9,295.8z"/>
	</g>
	<g id="tophair" class="st1">
		<path class="st19" d="M275.6,177.3c0,0-8.3-0.8-14.3-2.2s-15.4-4.2-28-1.8s-26,15.1-28.1,17.9c-2,2.8-10.2,10.6-10.2,10.6
			s2.6-19.5,4.5-26.6c2-7.1,12.1-26,25.6-32.8c13.5-6.8,14.4-10.3,38-12.6c23.6-2.3,42.8,9.5,48,12.3c5.2,2.8,10.7,9.9,10.9,10.2
			S275.6,177.3,275.6,177.3z"/>
	</g>
	<g id="eyelash" class="st1">
		<path class="st22" d="M191.9,195.5c0,0,17.2,3.3,23,3.7c10.6,0.7,24.1,6.2,27.1,9.4c7.6,8.1,6.2,18.1,6.2,18.1s-0.7-14.3-10-19.4
			s-13.8-9-30.6-3c-11.4,4.1-14.2,11.5-14.2,11.5S193.8,198.5,191.9,195.5z"/>
	</g>
	<path id="fronthair" class="st24" d="M321.3,151.9c0,0-3.6-0.3-17.9,3.1s-24.2,14-28.9,21.6c-4.8,7.7-5.3,22.8-2.7,32.5
		c2.6,9.7,16.8,25.5,35.9,35s55.7,29,63.3,52.3c7.7,23.5,4.3,43.2-5.3,54.5c-9.5,11.2-20.9,34.4-21.5,43.4s-4,27.1,10.6,37.7
		c14.6,10.6,30.9,10.5,50.1-0.8c19.3-11.2,42.5-21.3,36.3-46.3c-6.1-25-6.3-24.7,2.6-53.4c8.9-28.8,17-29.3,9.4-55
		s-34-22.1-37.1-39.3s2.2-54.5-11.4-70.8c-13.6-16.3-24.2-24-55-28.9c-30.8-4.9-43.7,1.8-43.7,1.8S317.7,147.1,321.3,151.9z"/>
</g>
<g id="edward_red" class="st0">
	<path class="st25" d="M250.8,188.4c0,0-12.3-4-26.9,0.8s-34.7,16.6-51.3,32.9S145.8,253.6,145,265c-0.8,11.5,12.3,40.3,12.5,45.4
		s4.9,16.1-1,24.8c-5.9,8.7-27.8,38.6-31.4,43.9c-3.6,5.4-15.8,33.7-13,45.7s7.3,34.6,21.3,41.1s30.6,15,57.5,8.5
		c26.9-6.5,50.7-9.9,73.2-21.4c22.5-11.6,43.6-10.9,57.5-3.1c14,7.8,37.1,17,63.7,21.8s59.6,10.6,85.4-6.8
		c25.9-17.4,32.7-32,34.7-52.8c2-20.8-5.1-38.5-20.6-49c-15.5-10.6-31.5-21.3-31.7-30.6c-0.2-9.4,6.6-25.4,15.3-30.3
		c8.7-4.9,10.1-18,7.4-23.9c-2.7-5.9-1.3-6.3-20.2-12.6c-18.9-6.4-29.1-11.1-34.7-23.6c-5.6-12.5-13.8-49-28.3-60.3
		c-14.6-11.2-26-19.1-54.9-20.2c-28.9-1-50.6,9.1-63.3,15.2C261.7,183,258.4,189.1,250.8,188.4z"/>
	<g id="Layer_3" class="st1">
		<path class="st10" d="M235.2,283.5l29.6,4.4l30.6-17.4l16.7-22.9l23.5,14l35.7-10.3l2.7-27.7c0,0-12.3-20.1-26.9-21.8
			c-14.6-1.7-58.6,12.6-58.6,12.6l-40.9,19.1L230.4,253L235.2,283.5z"/>
	</g>
	<g id="eyes" class="st1">
		<g>
			<circle class="st26" cx="267.4" cy="253.9" r="10.6"/>
			<circle class="st26" cx="337.1" cy="227.4" r="10.6"/>
		</g>
	</g>
	<path class="st27" d="M408.8,286.2c-2.6-19.1-6.1-27.6-13.8-39.1c-7.7-11.5-13-21.6-23.1-29.6s-19.1-16.9-22.1-18.5
		c-2.9-1.7-14.7-3.6-28.1-1.1s-19,3.6-29.1,2.8c-10.1-0.8-24.7-3.7-26.6-4.7c0,0,3.7,10.4-4.3,19.1s-21.4,22-28.9,27.9
		s-12.9,13.3-15.1,28.4c-2.2,15.1-4.3,37.8-7,43.1c-2.7,5.3-9.9,20.3-9.9,20.3s8,19.4,19.7,31.5c11.7,12.1,27.8,25.8,42.2,31.4
		s113.1,2.2,113.1,2.2l31.9-87.6C407.8,312.3,411.3,305.4,408.8,286.2z M299.2,256.3c-2.4,5.3-14.6,19.9-35.4,19.3
		c-20.8-0.6-26.8-14.5-25.5-19.3c0,0,1.4-18.7,28.9-24.9C294.7,225.3,302.1,249.6,299.2,256.3z M349.6,247.7
		c-19,8.5-30.2,0-31.1-4.8c0,0-6.1-21.3,12.1-32.6c21.2-13.2,38.8,3.9,39,11.1C369.6,227.2,368.5,239.2,349.6,247.7z"/>
	<path class="st28" d="M316.9,269.6c0,0-10.6,1.4-26.2,16.3s-24.9,37.8-27.9,51.4c-3.1,13.6-6.1,35.7-2,43.9
		c4.1,8.2,6.1,23.5,31.3,31.7c25.2,8.2,73.2,7.1,85.8,10.9c12.6,3.7,22.5,5.4,22.5,5.4s2.5-10.9,9.4-34.7c6.9-23.8,6.2-47,4.5-66
		s-4.4-22.1-11.2-31.7s-13.3-19.4-30.3-27.2c-17-7.8-42.6-4.4-47.3-3.1C320.6,267.9,316.9,269.6,316.9,269.6z"/>
	<path class="st27" d="M313.6,252.8c0,0-6.4,3.7-9.2,11.8c-2.8,8.1,3.3,12.2,9.2,10.7c5.9-1.5,19.7-4.9,27.1-16.9
		c7.4-12-14.7-11.2-18.5-10.2C318.4,249.2,313.6,252.8,313.6,252.8z"/>
	<path id="mouth" class="st6" d="M294.9,306c0,0,14.8-14.1,29.8-21.3c15-7.1,35.6-9.7,40.7-9.1"/>
	<path id="lefteyebrow" class="st6" d="M211,230.4c0,0,21.6-7.4,41.5-10.9s32,1.7,37.1,0"/>
	<path id="righteyebrow_1_" class="st6" d="M310.3,211.9c8.6-2,16.5-16.9,21.4-20.9c4.9-4.1,19.7-11.2,22.1-10.7"/>
</g>
</svg>
