<?xml version="1.0" encoding="utf-8"?>
<!-- Generator: Adobe Illustrator 25.3.1, SVG Export Plug-In . SVG Version: 6.00 Build 0)  -->
<svg version="1.1" id="thomas_pink" xmlns="http://www.w3.org/2000/svg" xmlns:xlink="http://www.w3.org/1999/xlink" x="0px"
	 y="0px" viewBox="0 0 422.5 422.5" style="enable-background:new 0 0 422.5 422.5;" xml:space="preserve">
<style type="text/css">
	.st0{fill:#FFFFFF;stroke:#000000;stroke-width:2;stroke-miterlimit:10;}
	.st1{fill:#D61B69;stroke:#000000;stroke-width:4;stroke-miterlimit:10;}
	.st2{fill:#F5A1C5;stroke:#000000;stroke-width:2;stroke-miterlimit:10;}
	.st3{fill:none;stroke:#000000;stroke-width:2;stroke-linecap:round;stroke-miterlimit:10;}
	.st4{fill:#D61B69;stroke:#000000;stroke-width:2;stroke-miterlimit:10;}
	.st5{fill:none;stroke:#000000;stroke-width:3;stroke-linecap:round;stroke-miterlimit:10;}
	.st6{opacity:0.48;fill:#FFFFFF;}
	.st7{fill:none;stroke:#000000;stroke-width:4;stroke-linecap:round;stroke-miterlimit:10;}
	.st8{fill:none;stroke:#000000;stroke-width:6;stroke-linecap:round;stroke-miterlimit:10;}
</style>
<g id="white_2_">
	<polygon class="st0" points="149.3,257.1 136.3,214.7 159.5,192.4 246.1,206.7 227,263.5 	"/>
</g>
<g id="eye">
	<circle class="st1" cx="195.2" cy="229.7" r="15"/>
</g>
<g id="face_3_">
	<path class="st2" d="M322,220.9c-0.7-17.1-3.2-31.1-7.7-41.4S302.2,160,302.2,160l-135.3-46.1l-74.2,34l-11.9,37.8
		c0,0-8.7,24.5-8.7,37.1s-1,33.4,11.7,49.7c12.8,16.3,53.7,64.4,64.2,72.6s24,21.4,56.7,24.3c32.7,2.8,38.6-9,38.6-9
		s38.5-36.4,48.2-54.8c9.7-18.4,16.8-27.1,23.9-49.9C318.8,244.5,322.4,231.3,322,220.9z M193.1,256.7c-19-2.2-26.8-9.5-31.8-18.5
		c-0.8-1.4-1.3-3.8-1.6-6c-0.9-5.5,1-11.1,5.1-14.8c6.3-5.8,17.2-9.6,29.3-9.5c18.4,0.3,33.3,13.8,32.9,28.3
		C226.7,250.8,212.1,258.9,193.1,256.7z"/>
	<path class="st3" d="M258.4,263.5c0,0,14.2-30.1,22.2-35.1c8-5,16.5-7.8,20.8,2.9s3.8,24.5,3.8,24.5"/>
</g>
<g id="backhair_1_">
	<path class="st4" d="M166.7,127.3c0,0,1,8-4.3,14.8c-5.3,6.8-13.3,12.3-22.8,14.5c-9.5,2.2-23,6-24.5,5.1
		c-1.5-0.9-11.7,12.4-11.1,23c0.7,10.6,2,22.1,9.5,24.2l-28.5,30.6c0,0-9-3-6.6-36.2c0.4-5.7,0.2-11.6,0.2-11.6s-5.3,15-5.4,16.5
		c-0.1,1.4-0.3-11.8,0.9-32.5s2.6-32.8,7-47.2c3.5-11.4,7.8-22.7,20.6-34.4s30.3-20.2,41.6-21.8c11.4-1.7,24.9,1,24.9,1L166.7,127.3
		z"/>
</g>
<g id="fronthair_1_">
	<path class="st4" d="M227.8,39.3c0,0-14.5-1.9-44.3,6.1s-38.1,33.9-38.3,44.3s1.7,33,26.4,49s28.4,16.6,51.1,18s31.7-0.3,51.3,2.6
		c19.7,2.8,32.3,9,39.4,21.7c7.1,12.7,8.5,41.8,8.5,41.8s5.6-3.1,7.6-9.3c2-6.2,6.7-18.3,6.3-30.6c-0.4-12.3-9.9-18.3-11.7-19.5
		c-13.3-8.3-16.9-8.5-16.9-8.5s21.2,6.2,30.6,23.7c8.1,15.2,9.1,18.4,9.1,18.4s3.9-7-4.1-29.1s-19.2-34.9-25.4-39.5
		c-6.1-4.6-12-8-12-8s10.3-0.4,19.3,5c8.9,5.4,19.4,13.3,23.1,22s4.6,16,4.6,16s7.7-22.9,4.9-35.7s-2.6-32-23.1-51.4
		s-31.5-20-56.6-24.5c-25.1-4.5-51.3,6.5-59.2,7.1c-7.9,0.6-16.6-2.8-11-8.9S227.8,39.3,227.8,39.3z"/>
</g>
<g id="mouth_3_">
	<path class="st5" d="M242.7,316.7c0,0-30.1,1-43.7-6.4c-13.5-7.4-26.6-18.6-30.8-28.6"/>
</g>
<g id="glasses_1_">
	<g id="Layer_33">
		<path class="st6" d="M111.8,241.8c0,0,4.4-34.7,19.7-40.1c15.3-5.4,105.2,33.4,107.9,33.7c2.7,0.3-3.1,33.4-7.5,39.8
			c-4.4,6.5-36.1,10.2-65.7,3.1S115.2,248.6,111.8,241.8z"/>
		<path class="st6" d="M250,282.1c0,0,8.2-44.4,7.5-46.8s67.7-1.7,83.1-8.5c15.3-6.8,4.4,52.1,4.4,52.1s-27.2,13.5-49.7,13.8
			S254.7,295.5,250,282.1z"/>
	</g>
	<path class="st7" d="M111.8,241.8c0,0,4.4-34.7,19.7-40.1c15.3-5.4,105.2,33.4,107.9,33.7c2.7,0.3-3.1,33.4-7.5,39.8
		c-4.4,6.5-36.1,10.2-65.7,3.1S115.2,248.6,111.8,241.8z"/>
	<path class="st7" d="M250,282.1c0,0,8.2-44.4,7.5-46.8s67.7-1.7,83.1-8.5c15.3-6.8,4.4,52.1,4.4,52.1s-27.2,13.5-49.7,13.8
		S254.7,295.5,250,282.1z"/>
	<path class="st7" d="M239.3,247.3c0,0,15.8-2,16.3,2.9"/>
</g>
<g id="nose_2_">
	<path class="st2" d="M239,249.3c0,0,18.8-1.3,19.6,15.8s-5.6,27.7-13.4,29.6c-7.8,1.9-26.7,0.8-31.8-9.8c-1.5-3.2-0.8-3.5-0.8-3.5
		s17.6-1.4,19.8-7.2C234.7,268.5,239,249.3,239,249.3z"/>
</g>
<g id="eyebrows">
	<path class="st8" d="M163.2,179.9c4.1-3.7,19-9.9,37.4,2.7c18.4,12.6,31.1,31.3,38.7,38.1"/>
	<path class="st8" d="M255.6,222.7c0,0,20.3-12.5,32.9-14.7s41.9-1.5,46,1.9"/>
</g>
</svg>
